<svg width="31" height="35" viewBox="0 0 31 35" fill="none" xmlns="http://www.w3.org/2000/svg">
<path d="M20.1446 27.4356C21.3287 27.4375 22.5058 27.2579 23.6333 26.9033C24.7614 26.5491 25.59 26.2078 26.1193 25.8795L26.9131 25.3471L30.2556 31.8994C30.1457 31.9813 29.9906 32.0902 29.796 32.2227C29.3569 32.4968 28.9037 32.7486 28.4381 32.9771C27.7057 33.3553 26.9444 33.677 26.1611 33.9395C25.3548 34.2125 24.2963 34.4582 22.9857 34.6766C21.6464 34.8957 20.2907 35.0038 18.9329 34.9999C15.7324 34.9846 12.5868 34.183 9.78398 32.6684C6.98115 31.1538 4.61052 28.9745 2.88894 26.3299C1.13413 23.6271 0.256723 20.7059 0.256723 17.5662C0.254208 15.203 0.781975 12.8682 1.80263 10.7273C2.78401 8.60967 4.18261 6.70301 5.91807 5.11684C7.67395 3.53475 9.70448 2.27338 11.9137 1.39236C14.136 0.47643 16.5221 0.00311802 18.9329 0C21.162 0 23.2144 0.259359 25.0901 0.778084C26.9659 1.29681 28.2981 1.81481 29.0868 2.3321L30.2567 3.11019L26.9142 9.6625C26.6372 9.44247 26.3431 9.24393 26.0346 9.0687C25.6447 8.83664 24.8662 8.5295 23.6993 8.14728C22.5549 7.76901 21.3555 7.57539 20.1479 7.57395C18.2538 7.57395 16.5547 7.87426 15.0506 8.47489C13.5464 9.07552 12.3557 9.86582 11.4783 10.8458C10.6294 11.7835 9.9511 12.857 9.47277 14.0196C9.01978 15.1194 8.78578 16.294 8.78338 17.48C8.78338 20.0463 9.76524 22.3454 11.729 24.3772C13.6927 26.409 16.4979 27.4285 20.1446 27.4356Z" fill="#F5D649"/>
</svg>
