<svg width="35" height="35" viewBox="0 0 35 35" fill="none" xmlns="http://www.w3.org/2000/svg">
<path d="M13.8541 4.88969C13.9731 4.85566 14.0927 4.82337 14.2128 4.79286C16.6543 4.17279 19.2196 4.31169 21.5844 5.192C23.9492 6.07231 26.0072 7.65449 27.4981 9.73845C27.8469 10.2259 28.1609 10.7356 28.4389 11.2636L32.2049 9.16506C30.7762 6.44957 28.6612 4.14714 26.0492 2.52246C23.1717 0.732595 19.843 -0.138959 16.4841 0.0180178C15.1999 0.0780381 13.9332 0.287391 12.7071 0.637748L13.8541 4.88969Z" fill="#F5D649" shape-rendering="optimizeQuality"/>
<path fill-rule="evenodd" clip-rule="evenodd" d="M14.2128 4.79286C14.0927 4.82337 13.9731 4.85566 13.8541 4.88969L12.71 0.648409C10.9776 1.14325 9.32307 1.92043 7.81202 2.95945C5.01639 4.88176 2.83745 7.61402 1.55076 10.8107C0.264071 14.0074 -0.0725746 17.5249 0.583375 20.9185C1.23932 24.3121 2.85841 27.4293 5.2359 29.876C7.61339 32.3226 10.6425 33.9888 13.9402 34.6638C17.2379 35.3389 20.656 34.9924 23.7623 33.6683C26.8687 32.3442 29.5237 30.1019 31.3917 27.2249C33.2597 24.348 34.2567 20.9656 34.2567 17.5055C34.2567 14.5669 33.5383 11.7045 32.2014 9.16701L28.4389 11.2636C28.1609 10.7356 27.8469 10.2259 27.4981 9.73845C26.0072 7.65449 23.9492 6.07231 21.5844 5.192C19.2196 4.31169 16.6543 4.17279 14.2128 4.79286ZM27.8234 10.2362C29.2205 12.3879 29.9662 14.9177 29.9662 17.5055H29.9714C29.9714 19.2243 29.6423 20.9262 29.003 22.514C28.3637 24.1018 27.4267 25.5445 26.2455 26.7596C25.0643 27.9747 23.662 28.9383 22.1188 29.5956C20.5756 30.2528 18.9216 30.5907 17.2515 30.59C14.7368 30.59 12.2785 29.8226 10.1876 28.3849C8.09667 26.9472 6.467 24.9036 5.50465 22.5128C4.54231 20.1219 4.29052 17.491 4.78112 14.9529C5.27171 12.4147 6.48267 10.0833 8.26085 8.25341C10.039 6.42352 12.3046 5.17734 14.771 4.67247C17.2374 4.16761 19.7939 4.42672 22.1172 5.41706C24.4405 6.40739 26.4263 8.08446 27.8234 10.2362Z" fill="#8080D7" shape-rendering="optimizeQuality"/>
</svg>
