<svg width="35" height="35" viewBox="0 0 35 35" fill="none" xmlns="http://www.w3.org/2000/svg">
<path d="M0.256714 17.4774C0.256714 12.5944 1.92052 8.46043 5.24813 5.0754C8.57575 1.69036 12.5849 -0.00143525 17.2756 9.1359e-07C21.9935 9.1359e-07 26.003 1.68498 29.3041 5.05493C32.6051 8.42489 34.256 12.5657 34.2567 17.4774C34.2567 22.4156 32.6338 26.5701 29.388 29.9408C26.1423 33.3114 22.1048 34.9978 17.2756 35C12.338 35 8.2671 33.3287 5.06295 29.986C1.85879 26.6433 0.256714 22.4738 0.256714 17.4774ZM8.56211 17.4774C8.56211 19.251 8.83486 20.8667 9.38037 22.3244C9.92589 23.7821 10.8805 25.0169 12.2443 26.0287C13.6081 27.0376 15.2855 27.5424 17.2766 27.5431C20.1406 27.5431 22.3021 26.5608 23.7614 24.5961C25.2206 22.6314 25.9502 20.2574 25.9502 17.4741C25.9502 14.7174 25.207 12.3503 23.7205 10.3727C22.234 8.39509 20.0857 7.40701 17.2756 7.40845C14.4935 7.40845 12.3455 8.3976 10.8317 10.3759C9.31793 12.3542 8.56139 14.7214 8.56211 17.4774Z" fill="#F5D649" shape-rendering="optimizeQuality"/>
</svg>
