<svg width="24" height="35" viewBox="0 0 24 35" fill="none" xmlns="http://www.w3.org/2000/svg">
<path d="M0.256714 0H10.3562C13.4064 0 15.8392 0.700067 17.6547 2.1002C19.4701 3.50033 20.3775 5.77062 20.3768 8.91106C20.3768 12.4185 19.0223 14.9217 16.3133 16.4209C20.9416 17.297 23.256 20.2372 23.2567 25.2415C23.2567 28.1839 22.3099 30.5458 20.4162 32.327C18.5226 34.1083 15.9188 34.9993 12.6049 35H0.256714V0ZM7.67352 13.7043H8.26529C9.92224 13.7043 11.1584 13.3932 11.9737 12.7709C12.789 12.1486 13.1967 11.1304 13.1967 9.71608C13.1967 7.3401 11.5529 6.1521 8.26529 6.1521H7.67352V13.7043ZM7.67352 28.8513H10.0011C13.6306 28.8513 15.4454 27.5486 15.4454 24.9434C15.4454 23.3877 14.9917 22.2711 14.0843 21.5938C13.177 20.9164 11.8159 20.577 10.0011 20.5755H7.67352V28.8513Z" fill="#8080D7" shape-rendering="optimizeQuality"/>
</svg>
