<svg width="264" height="263" viewBox="0 0 264 263" fill="none" xmlns="http://www.w3.org/2000/svg">
<g filter="url(#filter0_d_58_6055)">
<path d="M20.8286 166.687C24.312 164.734 35.7321 156.168 35.7321 128.053C35.7336 120.335 36.6507 112.645 38.4642 105.143C38.7849 103.823 38.5678 102.429 37.8607 101.268C37.1536 100.108 36.0145 99.2756 34.6939 98.9549C33.3734 98.6343 31.9795 98.8514 30.819 99.5585C29.6585 100.266 28.8264 101.405 28.5058 102.725C26.5103 111.02 25.506 119.522 25.5141 128.053C25.5141 149.993 17.755 156.455 16.143 157.561C13.7115 158.422 11.3619 159.365 9.09422 160.43C10.0049 163.773 11.0294 167.061 12.1678 170.294C14.724 169.07 17.3463 167.989 20.0226 167.056C20.3007 166.955 20.5702 166.831 20.8286 166.687Z" fill="#F5D648"/>
<path d="M78.7353 141.742C78.8122 140.424 78.3785 139.126 77.5243 138.12C76.67 137.113 75.4609 136.474 74.1479 136.335C72.8348 136.196 71.5187 136.568 70.4728 137.374C69.4269 138.18 68.7315 139.357 68.5309 140.663C63.8317 184.829 34.9262 195.307 33.8333 195.758C31.323 196.562 28.8869 197.581 26.5523 198.805C28.5057 201.674 30.5685 204.474 32.7542 207.179C34.1527 206.513 35.5949 205.942 37.0709 205.471C38.5599 204.952 73.3258 192.302 78.7353 141.742Z" fill="#F5D648"/>
<path d="M83.9672 192.712C84.7136 191.576 84.9782 190.19 84.7028 188.859C84.4274 187.528 83.6346 186.361 82.4988 185.615C81.363 184.868 79.9772 184.604 78.6463 184.879C77.3154 185.155 76.1485 185.947 75.4021 187.083C61.2226 208.641 42.3028 214.993 41.5378 215.239C41.1007 215.376 40.6499 215.54 40.1718 215.704C42.7673 218.436 45.513 221.045 48.3681 223.545C62.9287 216.868 75.2795 206.171 83.9672 192.712Z" fill="#F5D648"/>
<path d="M29.1888 186.031C33.929 184.119 57.5889 172.37 57.5889 128.053C57.5322 111.645 62.752 95.654 72.4778 82.4396C82.2036 69.2252 95.92 59.488 111.602 54.6653C112.882 54.2467 113.945 53.3415 114.562 52.1453C115.179 50.9492 115.3 49.5581 114.9 48.273C114.5 46.9879 113.61 45.9119 112.423 45.2778C111.236 44.6436 109.847 44.5021 108.556 44.8839C90.7854 50.3525 75.2428 61.3883 64.2212 76.3633C53.1996 91.3383 47.2828 109.459 47.3435 128.053C47.3435 165.881 28.2189 175.307 25.4868 176.482C22.3063 177.54 19.2141 178.846 16.2387 180.389C17.6047 183.504 19.1893 186.551 20.8559 189.515C23.4356 188.184 26.1169 187.061 28.8746 186.154L29.1888 186.031Z" fill="#F5D648"/>
<path d="M115.564 177.193C118.257 169.189 120.223 160.959 121.438 152.602C121.634 151.256 121.287 149.888 120.473 148.798C119.66 147.708 118.447 146.985 117.101 146.79C115.755 146.594 114.386 146.941 113.296 147.754C112.206 148.568 111.484 149.781 111.288 151.127C110.166 158.86 108.337 166.474 105.824 173.873C94.0897 208.245 70.5663 224.419 57.7528 230.99C60.8674 233.245 64.1186 235.348 67.4381 237.302C82.328 228.545 104.185 210.608 115.564 177.193Z" fill="#F5D648"/>
<path d="M143.636 128.053C143.636 126.695 143.096 125.392 142.136 124.431C141.175 123.47 139.872 122.93 138.513 122.93C137.155 122.93 135.852 123.47 134.891 124.431C133.931 125.392 133.391 126.695 133.391 128.053C133.391 170.649 120.277 204.816 94.4175 229.624C89.3157 234.521 83.7785 238.943 77.8747 242.835C81.542 244.574 85.2943 246.129 89.1173 247.493C93.3117 244.369 97.3124 240.993 101.097 237.384C120.509 218.941 143.636 184.993 143.636 128.053Z" fill="#F5D648"/>
<path d="M146.601 196.892C145.359 196.345 143.952 196.313 142.687 196.802C141.422 197.291 140.403 198.262 139.852 199.501C132.399 216.56 121.626 231.964 108.16 244.816C105.783 247.083 103.42 249.174 101.07 251.127C105.244 252.186 109.471 253.025 113.733 253.641L115.222 252.275C129.671 238.497 141.23 221.977 149.223 203.682C149.5 203.064 149.652 202.398 149.67 201.721C149.688 201.045 149.571 200.371 149.327 199.74C149.083 199.109 148.717 198.532 148.249 198.043C147.781 197.554 147.221 197.163 146.601 196.892Z" fill="#F5D648"/>
<path d="M151.081 95.0205C152.333 95.5531 153.745 95.5666 155.007 95.0581C156.268 94.5495 157.276 93.5606 157.809 92.3088C158.341 91.057 158.355 89.6448 157.847 88.3831C157.338 87.1213 156.349 86.1132 155.097 85.5806C148.086 82.6279 140.453 81.4546 132.879 82.1651C125.304 82.8757 118.023 85.4482 111.683 89.6535C105.343 93.8587 100.141 99.5664 96.5397 106.268C92.9388 112.97 91.0506 120.459 91.0434 128.067C91.1512 139.776 89.6153 151.443 86.4808 162.725C86.2721 163.377 86.1962 164.065 86.2575 164.746C86.3188 165.428 86.5162 166.091 86.8378 166.695C87.1595 167.299 87.599 167.833 88.1304 168.264C88.6617 168.696 89.2742 169.016 89.9315 169.207C90.5889 169.398 91.2778 169.455 91.9576 169.375C92.6375 169.295 93.2943 169.08 93.8895 168.742C94.4847 168.404 95.0061 167.95 95.4229 167.407C95.8397 166.864 96.1435 166.243 96.3163 165.581C99.7235 153.371 101.397 140.743 101.289 128.067C101.296 118.558 105.076 109.441 111.8 102.718C118.523 95.994 127.639 92.2135 137.147 92.2063C141.934 92.1958 146.674 93.153 151.081 95.0205Z" fill="#F5D648"/>
<path d="M152.379 179.816C152.776 179.919 153.185 179.97 153.595 179.966C154.74 179.968 155.853 179.586 156.754 178.879C157.656 178.173 158.295 177.185 158.567 176.072C162.349 160.349 164.215 144.225 164.127 128.053C164.127 121.26 161.428 114.745 156.625 109.941C151.821 105.137 145.307 102.439 138.513 102.439C131.72 102.439 125.206 105.137 120.402 109.941C115.599 114.745 112.9 121.26 112.9 128.053C112.9 129.412 113.44 130.715 114.401 131.676C115.361 132.637 116.664 133.176 118.023 133.176C119.381 133.176 120.684 132.637 121.645 131.676C122.606 130.715 123.145 129.412 123.145 128.053C123.145 123.977 124.765 120.068 127.647 117.186C130.529 114.304 134.438 112.684 138.513 112.684C142.589 112.684 146.498 114.304 149.38 117.186C152.262 120.068 153.882 123.977 153.882 128.053C153.963 143.394 152.207 158.69 148.65 173.613C148.486 174.266 148.453 174.944 148.552 175.609C148.651 176.274 148.88 176.912 149.227 177.489C149.573 178.065 150.03 178.567 150.571 178.966C151.112 179.366 151.726 179.654 152.379 179.816Z" fill="#F5D648"/>
<path d="M178.484 107.63C177.875 106.422 176.813 105.504 175.53 105.076C174.247 104.648 172.847 104.745 171.635 105.346C170.424 105.946 169.498 107.002 169.062 108.282C168.625 109.562 168.712 110.963 169.304 112.179C171.755 117.111 173.023 122.546 173.006 128.053C173.006 191.305 148.417 231.373 125.782 254.816C127.927 254.925 130.071 254.98 132.243 254.98C134.757 254.98 137.243 254.98 139.688 254.761C161.627 229.228 183.252 188.668 183.252 128.053C183.271 120.967 181.639 113.975 178.484 107.63Z" fill="#F5D648"/>
<path d="M186.448 199.816C185.167 199.364 183.76 199.438 182.534 200.022C181.307 200.606 180.362 201.652 179.905 202.93C173.549 221.052 164.385 238.063 152.748 253.34C157.822 252.538 162.841 251.415 167.774 249.98C176.856 236.411 184.199 221.756 189.631 206.359C189.855 205.721 189.95 205.044 189.911 204.369C189.872 203.693 189.699 203.032 189.403 202.424C189.107 201.816 188.694 201.272 188.187 200.824C187.679 200.377 187.089 200.034 186.448 199.816Z" fill="#F5D648"/>
<path d="M194.603 165.225C194.817 165.239 195.032 165.239 195.245 165.225C196.491 165.226 197.693 164.772 198.629 163.95C199.564 163.128 200.168 161.993 200.327 160.758C201.711 149.884 202.396 138.933 202.376 127.971C202.36 111.403 196.168 95.4361 185.011 83.1882C173.854 70.9402 158.533 63.291 142.039 61.7342C125.545 60.1774 109.063 64.8249 95.8115 74.769C82.5602 84.7131 73.491 99.2398 70.3751 115.512C70.1179 116.847 70.4015 118.23 71.1636 119.356C71.9258 120.482 73.104 121.259 74.439 121.516C75.7741 121.774 77.1567 121.49 78.2826 120.728C79.4086 119.966 80.1856 118.787 80.4428 117.452C83.0867 103.682 90.7691 91.392 101.989 82.9832C113.209 74.5745 127.161 70.651 141.119 71.9793C155.077 73.3076 168.039 79.7921 177.472 90.1663C186.905 100.54 192.131 114.059 192.131 128.081C192.139 138.585 191.486 149.079 190.177 159.501C190.089 160.168 190.134 160.846 190.309 161.495C190.485 162.145 190.787 162.753 191.198 163.285C191.61 163.818 192.122 164.263 192.707 164.596C193.291 164.929 193.936 165.143 194.603 165.225Z" fill="#F5D648"/>
<path d="M200.313 71.1544C186.829 55.5348 168.242 45.2047 147.857 42.0014C146.527 41.8202 145.18 42.1682 144.104 42.9705C143.028 43.7729 142.31 44.9655 142.104 46.2918C141.898 47.6181 142.221 48.9723 143.003 50.063C143.785 51.1537 144.964 51.8939 146.286 52.1244C164.345 55.0543 180.78 64.2897 192.675 78.1906C204.569 92.0914 211.152 109.758 211.255 128.053C211.255 178.053 198.278 216.414 181.448 245.143C186.976 242.849 192.331 240.16 197.472 237.097C211.474 208.805 221.501 172.889 221.501 128.094C221.508 107.185 213.987 86.9725 200.313 71.1544Z" fill="#F5D648"/>
<path d="M214.998 75.5806C215.464 76.3019 216.104 76.8949 216.858 77.3053C217.612 77.7158 218.457 77.9307 219.315 77.9304C220.286 77.9267 221.235 77.642 222.047 77.1107C222.615 76.7485 223.105 76.2779 223.489 75.7257C223.874 75.1736 224.146 74.5508 224.29 73.8932C224.433 73.2357 224.445 72.5563 224.325 71.894C224.205 71.2317 223.956 70.5997 223.591 70.0342C214.093 55.182 201.088 42.8932 185.723 34.25C170.358 25.6068 153.104 20.8744 135.479 20.4695C117.855 20.0647 100.402 23.9998 84.6559 31.9283C68.9101 39.8568 55.3554 51.5354 45.1852 65.9358C44.4775 67.0481 44.2245 68.39 44.4787 69.6837C44.7329 70.9773 45.4748 72.1238 46.5507 72.8856C47.6267 73.6474 48.9544 73.9663 50.2589 73.7763C51.5635 73.5863 52.7451 72.9019 53.559 71.8648C62.7542 58.83 75.0139 48.2568 89.258 41.077C103.502 33.8972 119.293 30.331 135.24 30.6927C151.187 31.0544 166.801 35.3329 180.705 43.1512C194.609 50.9695 206.376 62.0877 214.971 75.526L214.998 75.5806Z" fill="#F5D648"/>
<path d="M134.989 0.0205078C134.074 0.0205078 133.172 0.0205078 132.257 0.0205078H131.997C113.401 0.0562904 95.0383 4.16038 78.1961 12.0449C61.354 19.9294 46.4407 31.4034 34.5022 45.6621C22.5637 59.9209 13.8892 76.619 9.08703 94.5854C4.28488 112.552 3.4714 131.351 6.70364 149.665L7.85112 149.187C8.98004 148.732 9.90987 147.889 10.4739 146.81C12.0176 143.873 13.8754 138.231 13.8754 128.026C13.7076 112.447 16.6311 96.9889 22.4766 82.5471C28.3221 68.1052 36.9736 54.9661 47.9304 43.8902C58.8871 32.8142 71.9316 24.0213 86.3089 18.0203C100.686 12.0193 116.111 8.92939 131.69 8.92939C147.269 8.92939 162.694 12.0193 177.071 18.0203C191.449 24.0213 204.493 32.8142 215.45 43.8902C226.407 54.9661 235.058 68.1052 240.904 82.5471C246.749 96.9889 249.673 112.447 249.505 128.026C249.592 148.974 247.467 169.873 243.166 190.376C254.017 171.307 259.732 149.748 259.75 127.807V127.521C259.761 94.1725 246.706 62.1476 223.383 38.313C200.061 14.4784 168.328 0.731636 134.989 0.0205078Z" fill="#F5D648"/>
<path d="M235.503 122.93C234.144 122.93 232.841 123.47 231.881 124.431C230.92 125.392 230.38 126.695 230.38 128.053C230.38 167.329 222.963 200.075 211.87 227.07C217.89 222.268 223.467 216.937 228.536 211.141C236.752 184.241 240.829 156.248 240.626 128.122C240.636 127.443 240.512 126.768 240.259 126.138C240.006 125.508 239.631 124.934 239.154 124.451C238.677 123.967 238.108 123.584 237.481 123.323C236.854 123.062 236.182 122.928 235.503 122.93Z" fill="#F5D648"/>
</g>
<defs>
<filter id="filter0_d_58_6055" x="0.763245" y="0.0205078" width="262.987" height="262.959" filterUnits="userSpaceOnUse" color-interpolation-filters="sRGB">
<feFlood flood-opacity="0" result="BackgroundImageFix"/>
<feColorMatrix in="SourceAlpha" type="matrix" values="0 0 0 0 0 0 0 0 0 0 0 0 0 0 0 0 0 0 127 0" result="hardAlpha"/>
<feOffset dy="4"/>
<feGaussianBlur stdDeviation="2"/>
<feComposite in2="hardAlpha" operator="out"/>
<feColorMatrix type="matrix" values="0 0 0 0 0 0 0 0 0 0 0 0 0 0 0 0 0 0 0.25 0"/>
<feBlend mode="normal" in2="BackgroundImageFix" result="effect1_dropShadow_58_6055"/>
<feBlend mode="normal" in="SourceGraphic" in2="effect1_dropShadow_58_6055" result="shape"/>
</filter>
</defs>
</svg>
