<svg width="170" height="282" viewBox="0 0 170 282" fill="none" xmlns="http://www.w3.org/2000/svg">
<path d="M0.256714 55C0.256714 40.0883 12.345 28 27.2567 28H142.257C157.168 28 169.257 40.0883 169.257 55V255C169.257 269.912 157.168 282 142.257 282H27.2567C12.345 282 0.256714 269.912 0.256714 255V55Z" fill="#928FCA"/>
<path d="M16.2567 9C16.2567 4.02944 20.2862 0 25.2567 0H144.257C149.227 0 153.257 4.02944 153.257 9V19C153.257 23.9706 149.227 28 144.257 28H25.2567C20.2862 28 16.2567 23.9706 16.2567 19V9Z" fill="#6F6CA2"/>
<path d="M0.256714 90H169.257V224H0.256714V90Z" fill="white"/>
<path d="M36.329 143L35.945 141.176H35.897C34.873 142.664 33.233 143.408 30.977 143.408C28.625 143.408 26.737 142.648 25.313 141.128C23.729 139.448 22.937 137.232 22.937 134.48C22.937 131.888 23.705 129.752 25.241 128.072C26.793 126.376 28.865 125.528 31.457 125.528C33.681 125.528 35.481 126.072 36.857 127.16C38.233 128.248 39.057 129.752 39.329 131.672H34.481C34.337 131.096 34.009 130.616 33.497 130.232C33.001 129.848 32.385 129.656 31.649 129.656C30.481 129.656 29.585 130.096 28.961 130.976C28.337 131.856 28.025 133.024 28.025 134.48C28.025 135.92 28.361 137.096 29.033 138.008C29.721 138.92 30.657 139.376 31.841 139.376C33.473 139.376 34.481 138.664 34.865 137.24H32.585V133.688H39.665V143H36.329Z" fill="black"/>
<path d="M55.7267 140.912C54.1267 142.576 52.0147 143.408 49.3907 143.408C46.7667 143.408 44.6627 142.576 43.0787 140.912C41.4947 139.232 40.7027 137.088 40.7027 134.48C40.7027 131.872 41.4947 129.728 43.0787 128.048C44.6627 126.368 46.7667 125.528 49.3907 125.528C52.0147 125.528 54.1267 126.368 55.7267 128.048C57.3267 129.728 58.1267 131.872 58.1267 134.48C58.1267 137.088 57.3267 139.232 55.7267 140.912ZM46.7267 138.032C47.3507 138.944 48.2467 139.4 49.4146 139.4C50.5826 139.4 51.4787 138.944 52.1027 138.032C52.7267 137.12 53.0387 135.936 53.0387 134.48C53.0387 133.024 52.7267 131.84 52.1027 130.928C51.4787 130 50.5826 129.536 49.4146 129.536C48.2467 129.536 47.3507 130 46.7267 130.928C46.1026 131.84 45.7907 133.024 45.7907 134.48C45.7907 135.936 46.1026 137.12 46.7267 138.032Z" fill="black"/>
<path d="M73.8673 140.912C72.2673 142.576 70.1553 143.408 67.5313 143.408C64.9073 143.408 62.8033 142.576 61.2193 140.912C59.6353 139.232 58.8433 137.088 58.8433 134.48C58.8433 131.872 59.6353 129.728 61.2193 128.048C62.8033 126.368 64.9073 125.528 67.5313 125.528C70.1553 125.528 72.2673 126.368 73.8673 128.048C75.4673 129.728 76.2673 131.872 76.2673 134.48C76.2673 137.088 75.4673 139.232 73.8673 140.912ZM64.8673 138.032C65.4913 138.944 66.3873 139.4 67.5553 139.4C68.7233 139.4 69.6193 138.944 70.2433 138.032C70.8673 137.12 71.1793 135.936 71.1793 134.48C71.1793 133.024 70.8673 131.84 70.2433 130.928C69.6193 130 68.7233 129.536 67.5553 129.536C66.3873 129.536 65.4913 130 64.8673 130.928C64.2433 131.84 63.9313 133.024 63.9313 134.48C63.9313 135.936 64.2433 137.12 64.8673 138.032Z" fill="black"/>
<path d="M77.6559 143V125.84H85.5759C88.0879 125.84 90.1119 126.608 91.6479 128.144C93.1839 129.664 93.9519 131.768 93.9519 134.456C93.9519 137.176 93.1919 139.28 91.6719 140.768C90.1519 142.256 88.0479 143 85.3599 143H77.6559ZM82.6719 138.848H84.9519C86.1359 138.848 87.0799 138.472 87.7839 137.72C88.5039 136.952 88.8639 135.864 88.8639 134.456C88.8639 133.048 88.5119 131.952 87.8079 131.168C87.1199 130.384 86.1679 129.992 84.9519 129.992H82.6719V138.848Z" fill="black"/>
<path d="M98.9371 143V125.84H112.161V130.064H103.953V132.872H110.745V136.76H103.953V143H98.9371Z" fill="black"/>
<path d="M127.586 140.912C125.986 142.576 123.874 143.408 121.25 143.408C118.626 143.408 116.522 142.576 114.938 140.912C113.354 139.232 112.562 137.088 112.562 134.48C112.562 131.872 113.354 129.728 114.938 128.048C116.522 126.368 118.626 125.528 121.25 125.528C123.874 125.528 125.986 126.368 127.586 128.048C129.186 129.728 129.986 131.872 129.986 134.48C129.986 137.088 129.186 139.232 127.586 140.912ZM118.586 138.032C119.21 138.944 120.106 139.4 121.274 139.4C122.442 139.4 123.338 138.944 123.962 138.032C124.586 137.12 124.898 135.936 124.898 134.48C124.898 133.024 124.586 131.84 123.962 130.928C123.338 130 122.442 129.536 121.274 129.536C120.106 129.536 119.21 130 118.586 130.928C117.962 131.84 117.65 133.024 117.65 134.48C117.65 135.936 117.962 137.12 118.586 138.032Z" fill="black"/>
<path d="M131.375 143V125.84H139.895C141.767 125.84 143.311 126.28 144.527 127.16C145.759 128.024 146.375 129.288 146.375 130.952C146.375 132.888 145.439 134.28 143.567 135.128V135.2C144.863 135.696 145.663 136.64 145.967 138.032C146.095 138.576 146.175 139.256 146.207 140.072C146.239 140.872 146.279 141.504 146.327 141.968C146.375 142.432 146.487 142.688 146.663 142.736V143H141.719C141.575 142.904 141.479 142.648 141.431 142.232C141.383 141.8 141.335 141.256 141.287 140.6C141.239 139.944 141.167 139.416 141.071 139.016C140.911 138.328 140.655 137.824 140.303 137.504C139.951 137.184 139.423 137.024 138.719 137.024H136.391V143H131.375ZM136.391 129.776V133.448H139.079C140.567 133.448 141.311 132.84 141.311 131.624C141.311 131.048 141.127 130.6 140.759 130.28C140.391 129.944 139.855 129.776 139.151 129.776H136.391Z" fill="black"/>
<path d="M65.3817 163V156.976L59.5017 145.84H64.9497L66.7737 149.656C66.9657 150.04 67.1577 150.464 67.3497 150.928C67.5417 151.392 67.6857 151.752 67.7817 152.008L67.9257 152.416H67.9737C68.3417 151.44 68.7337 150.52 69.1497 149.656L70.9737 145.84H76.3017L70.3977 156.976V163H65.3817Z" fill="black"/>
<path d="M90.0743 160.912C88.4743 162.576 86.3623 163.408 83.7383 163.408C81.1143 163.408 79.0103 162.576 77.4263 160.912C75.8423 159.232 75.0503 157.088 75.0503 154.48C75.0503 151.872 75.8423 149.728 77.4263 148.048C79.0103 146.368 81.1143 145.528 83.7383 145.528C86.3623 145.528 88.4743 146.368 90.0743 148.048C91.6743 149.728 92.4743 151.872 92.4743 154.48C92.4743 157.088 91.6743 159.232 90.0743 160.912ZM81.0743 158.032C81.6983 158.944 82.5943 159.4 83.7623 159.4C84.9303 159.4 85.8263 158.944 86.4503 158.032C87.0743 157.12 87.3863 155.936 87.3863 154.48C87.3863 153.024 87.0743 151.84 86.4503 150.928C85.8263 150 84.9303 149.536 83.7623 149.536C82.5943 149.536 81.6983 150 81.0743 150.928C80.4503 151.84 80.1383 153.024 80.1383 154.48C80.1383 155.936 80.4503 157.12 81.0743 158.032Z" fill="black"/>
<path d="M101.399 163.312C98.8709 163.312 96.9589 162.72 95.6629 161.536C94.3829 160.336 93.7429 158.64 93.7429 156.448V145.84H98.7589V156.736C98.7589 157.552 98.9829 158.184 99.4309 158.632C99.8949 159.08 100.575 159.304 101.471 159.304C102.303 159.304 102.935 159.064 103.367 158.584C103.815 158.088 104.039 157.44 104.039 156.64V145.84H109.055V156.448C109.055 158.608 108.407 160.296 107.111 161.512C105.815 162.712 103.911 163.312 101.399 163.312Z" fill="black"/>
<path d="M62.9686 189.44C62.2486 188.18 61.8886 186.76 61.8886 185.18C61.8886 184.253 61.9886 183.37 62.1886 182.53C62.3886 181.69 62.6486 181 62.9686 180.46H64.5686C63.9819 181.933 63.6886 183.507 63.6886 185.18C63.6886 186.5 63.9819 187.92 64.5686 189.44H62.9686Z" fill="black"/>
<path d="M64.9282 182.63V180.85H71.0882V182.63H69.0382V188H66.9482V182.63H64.9282Z" fill="black"/>
<path d="M72.7873 182.9V183.67H72.8173C73.1907 183.083 73.7073 182.79 74.3673 182.79C74.5073 182.79 74.6107 182.807 74.6773 182.84V184.45H74.6373C74.0773 184.357 73.644 184.433 73.3373 184.68C73.0307 184.927 72.8773 185.337 72.8773 185.91V188H70.9873V182.9H72.7873Z" fill="black"/>
<path d="M80.328 188H78.528V187.34H78.498C78.098 187.887 77.568 188.16 76.908 188.16C76.3146 188.16 75.8613 187.983 75.548 187.63C75.2413 187.277 75.088 186.797 75.088 186.19V182.9H76.978V185.74C76.978 186.28 77.2046 186.55 77.658 186.55C77.9046 186.55 78.0946 186.47 78.228 186.31C78.368 186.15 78.438 185.93 78.438 185.65V182.9H80.328V188Z" fill="black"/>
<path d="M83.2769 188.17C82.5035 188.17 81.8835 188.01 81.4169 187.69C80.9502 187.37 80.7135 186.923 80.7069 186.35H82.5169C82.5502 186.797 82.8069 187.02 83.2869 187.02C83.7202 187.02 83.9369 186.873 83.9369 186.58C83.9369 186.407 83.8469 186.287 83.6669 186.22C83.4869 186.147 83.2135 186.083 82.8469 186.03C82.7735 186.023 82.7202 186.017 82.6869 186.01C82.4802 185.977 82.3035 185.943 82.1569 185.91C82.0169 185.877 81.8535 185.823 81.6669 185.75C81.4869 185.67 81.3402 185.577 81.2269 185.47C81.1202 185.357 81.0269 185.207 80.9469 185.02C80.8735 184.833 80.8369 184.617 80.8369 184.37C80.8369 183.863 81.0602 183.467 81.5069 183.18C81.9535 182.887 82.5035 182.74 83.1569 182.74C83.9235 182.74 84.5102 182.877 84.9169 183.15C85.3302 183.423 85.5535 183.813 85.5869 184.32H83.8069C83.7669 184.013 83.5535 183.86 83.1669 183.86C83.0135 183.86 82.8835 183.893 82.7769 183.96C82.6769 184.02 82.6269 184.11 82.6269 184.23C82.6269 184.357 82.7069 184.447 82.8669 184.5C83.0335 184.553 83.3035 184.607 83.6769 184.66C83.9169 184.693 84.1102 184.727 84.2569 184.76C84.4102 184.787 84.5935 184.843 84.8069 184.93C85.0269 185.01 85.1969 185.11 85.3169 185.23C85.4435 185.343 85.5535 185.503 85.6469 185.71C85.7402 185.91 85.7869 186.147 85.7869 186.42C85.7869 187 85.5535 187.437 85.0869 187.73C84.6269 188.023 84.0235 188.17 83.2769 188.17Z" fill="black"/>
<path d="M85.8248 184.04V182.9H86.4848V181.25H88.3348V182.9H89.3048V184.04H88.3348V186.11C88.3348 186.27 88.3714 186.39 88.4448 186.47C88.5248 186.55 88.6348 186.593 88.7748 186.6C88.9148 186.607 89.0848 186.603 89.2848 186.59V187.98C88.9514 188.06 88.6414 188.1 88.3548 188.1C87.7081 188.1 87.2348 187.987 86.9348 187.76C86.6348 187.527 86.4848 187.117 86.4848 186.53V184.04H85.8248Z" fill="black"/>
<path d="M91.2901 188V182.9H93.0901V183.66H93.1201C93.4934 183.047 94.0334 182.74 94.7401 182.74C95.4334 182.74 95.9167 183.037 96.1901 183.63H96.2201C96.6067 183.037 97.1634 182.74 97.8901 182.74C98.4901 182.74 98.9367 182.927 99.2301 183.3C99.5301 183.673 99.6801 184.17 99.6801 184.79V188H97.7901V185.14C97.7901 184.567 97.5734 184.28 97.1401 184.28C96.9134 184.28 96.7367 184.37 96.6101 184.55C96.4901 184.73 96.4301 184.963 96.4301 185.25V188H94.5401V185.14C94.5401 184.567 94.3234 184.28 93.8901 184.28C93.6634 184.28 93.4867 184.37 93.3601 184.55C93.2401 184.73 93.1801 184.963 93.1801 185.25V188H91.2901Z" fill="black"/>
<path d="M102.903 188.14C102.077 188.14 101.403 187.887 100.883 187.38C100.37 186.873 100.113 186.227 100.113 185.44C100.113 184.66 100.367 184.013 100.873 183.5C101.38 182.987 102.033 182.73 102.833 182.73C103.587 182.73 104.213 182.96 104.713 183.42C105.327 183.987 105.623 184.817 105.603 185.91H101.963C102.083 186.543 102.417 186.86 102.963 186.86C103.297 186.86 103.533 186.733 103.673 186.48H105.503C105.39 186.96 105.067 187.37 104.533 187.71C104.087 187.997 103.543 188.14 102.903 188.14ZM102.873 184C102.373 184 102.07 184.303 101.963 184.91H103.723C103.683 184.623 103.587 184.4 103.433 184.24C103.287 184.08 103.1 184 102.873 184Z" fill="black"/>
<path d="M105.945 189.44C106.532 187.967 106.825 186.393 106.825 184.72C106.825 183.4 106.532 181.98 105.945 180.46H107.545C108.265 181.72 108.625 183.14 108.625 184.72C108.625 185.647 108.525 186.53 108.325 187.37C108.125 188.21 107.865 188.9 107.545 189.44H105.945Z" fill="black"/>
</svg>
