<svg width="339" height="308" viewBox="0 0 339 308" fill="none" xmlns="http://www.w3.org/2000/svg">
<g filter="url(#filter0_d_58_6120)">
<path d="M43.7134 33.7373H20.6706C16.3173 33.7373 12.1424 35.4708 9.06423 38.5565C5.98603 41.6422 4.25671 45.8273 4.25671 50.1912V73.7958C4.25578 76.671 5.00666 79.4962 6.43451 81.9899C7.86235 84.4835 9.91729 86.5584 12.3945 88.0077C12.5919 88.1241 12.8164 88.1863 13.0455 88.188C13.2745 88.1897 13.4999 88.1309 13.6991 88.0175C13.8982 87.904 14.064 87.74 14.1798 87.5419C14.2956 87.3438 14.3572 87.1186 14.3586 86.889V51.6678C14.3598 51.3941 14.4688 51.1318 14.6619 50.9382C14.855 50.7446 15.1166 50.6353 15.3898 50.6342C15.6617 50.6365 15.9217 50.7465 16.1131 50.9401C16.3046 51.1337 16.412 51.3952 16.412 51.6678V135.481C16.412 139.558 19.5367 143.088 23.6034 143.231C24.5976 143.263 25.5881 143.094 26.5159 142.735C27.4438 142.375 28.2901 141.833 29.0046 141.139C29.7191 140.445 30.2873 139.615 30.6753 138.696C31.0634 137.778 31.2634 136.791 31.2635 135.794V93.2835C31.2629 93.1476 31.2892 93.013 31.3408 92.8873C31.3924 92.7616 31.4683 92.6474 31.5642 92.5513C31.6601 92.4552 31.774 92.3791 31.8993 92.3273C32.0247 92.2756 32.1591 92.2493 32.2946 92.2499C32.4299 92.2499 32.5637 92.2766 32.6886 92.3286C32.8134 92.3806 32.9268 92.4568 33.0222 92.5529C33.1176 92.6489 33.1931 92.7629 33.2445 92.8883C33.2958 93.0137 33.3219 93.148 33.3214 93.2835V135.481C33.3214 139.558 36.4461 143.111 40.5172 143.231C41.5103 143.261 42.4993 143.091 43.4256 142.731C44.3519 142.371 45.1966 141.828 45.9097 141.134C46.6228 140.44 47.1898 139.61 47.577 138.693C47.9642 137.776 48.1638 136.79 48.1639 135.794V51.6678C48.1651 51.3941 48.2741 51.1318 48.4672 50.9382C48.6604 50.7446 48.922 50.6353 49.1951 50.6342C49.4686 50.6342 49.7309 50.7431 49.9242 50.9369C50.1176 51.1308 50.2263 51.3937 50.2263 51.6678V86.7861C50.2278 87.017 50.2903 87.2433 50.4074 87.442C50.5245 87.6408 50.692 87.8049 50.893 87.9177C51.0939 88.0304 51.3211 88.0878 51.5513 88.084C51.7816 88.0802 52.0067 88.0153 52.2038 87.8959C54.6234 86.432 56.6246 84.3663 58.0136 81.899C59.4026 79.4318 60.1322 76.6467 60.1317 73.8137V50.1912C60.1305 45.8269 58.4002 41.6418 55.3213 38.5562C52.2424 35.4707 48.067 33.7373 43.7134 33.7373Z" fill="#F5D649"/>
<path d="M46.4292 18.9287C48.2748 11.0899 43.4319 3.23546 35.6121 1.38533C27.7923 -0.464794 19.957 4.38999 18.1114 12.2288C16.2657 20.0676 21.1087 27.9221 28.9285 29.7722C36.7482 31.6223 44.5836 26.7675 46.4292 18.9287Z" fill="#F5D649"/>
<path d="M112.287 33.7373H89.2444C84.8912 33.7373 80.7163 35.4708 77.6381 38.5565C74.5599 41.6422 72.8306 45.8273 72.8306 50.1912V73.7958C72.8296 76.671 73.5805 79.4962 75.0084 81.9899C76.4362 84.4835 78.4911 86.5584 80.9683 88.0077C81.1657 88.1241 81.3903 88.1863 81.6193 88.188C81.8484 88.1897 82.0738 88.1309 82.2729 88.0175C82.4721 87.904 82.6379 87.74 82.7537 87.5419C82.8694 87.3438 82.9311 87.1186 82.9324 86.889V51.6678C82.9336 51.3941 83.0426 51.1318 83.2358 50.9382C83.4289 50.7446 83.6905 50.6353 83.9636 50.6342C84.2355 50.6365 84.4955 50.7465 84.687 50.9401C84.8784 51.1337 84.9859 51.3952 84.9859 51.6678V135.481C84.9859 139.558 88.1106 143.088 92.1772 143.231C93.1715 143.263 94.1619 143.094 95.0898 142.735C96.0176 142.375 96.8639 141.833 97.5785 141.139C98.293 140.445 98.8612 139.615 99.2492 138.696C99.6372 137.778 99.8372 136.791 99.8373 135.794V93.2835C99.8368 93.1476 99.863 93.013 99.9146 92.8873C99.9662 92.7616 100.042 92.6474 100.138 92.5513C100.234 92.4552 100.348 92.3791 100.473 92.3273C100.599 92.2756 100.733 92.2493 100.869 92.2499C101.004 92.2499 101.138 92.2766 101.262 92.3286C101.387 92.3806 101.501 92.4568 101.596 92.5529C101.691 92.6489 101.767 92.7629 101.818 92.8883C101.87 93.0137 101.896 93.148 101.895 93.2835V135.481C101.895 139.558 105.02 143.111 109.091 143.231C110.084 143.261 111.073 143.091 111.999 142.731C112.926 142.371 113.77 141.828 114.484 141.134C115.197 140.44 115.764 139.61 116.151 138.693C116.538 137.776 116.738 136.79 116.738 135.794V51.6678C116.739 51.3941 116.848 51.1318 117.041 50.9382C117.234 50.7446 117.496 50.6353 117.769 50.6342C118.042 50.6342 118.305 50.7431 118.498 50.9369C118.691 51.1308 118.8 51.3937 118.8 51.6678V86.7861C118.802 87.017 118.864 87.2433 118.981 87.442C119.098 87.6408 119.266 87.8049 119.467 87.9177C119.668 88.0304 119.895 88.0878 120.125 88.084C120.355 88.0802 120.581 88.0153 120.778 87.8959C123.197 86.432 125.198 84.3663 126.587 81.899C127.976 79.4318 128.706 76.6467 128.706 73.8137V50.1912C128.704 45.8269 126.974 41.6418 123.895 38.5562C120.816 35.4707 116.641 33.7373 112.287 33.7373Z" fill="#F5D649"/>
<path d="M115.003 18.9287C116.849 11.0899 112.006 3.23546 104.186 1.38533C96.3662 -0.464794 88.5309 4.38999 86.6852 12.2288C84.8396 20.0676 89.6826 27.9221 97.5023 29.7722C105.322 31.6223 113.157 26.7675 115.003 18.9287Z" fill="#F5D649"/>
<path d="M180.861 33.7373H157.818C153.465 33.7373 149.29 35.4708 146.212 38.5565C143.134 41.6422 141.404 45.8273 141.404 50.1912V73.7958C141.404 76.671 142.154 79.4962 143.582 81.9899C145.01 84.4835 147.065 86.5584 149.542 88.0077C149.74 88.1241 149.964 88.1863 150.193 88.188C150.422 88.1897 150.648 88.1309 150.847 88.0175C151.046 87.904 151.212 87.74 151.328 87.5419C151.443 87.3438 151.505 87.1186 151.506 86.889V51.6678C151.507 51.3941 151.617 51.1318 151.81 50.9382C152.003 50.7446 152.264 50.6353 152.537 50.6342C152.809 50.6365 153.069 50.7465 153.261 50.9401C153.452 51.1337 153.56 51.3952 153.56 51.6678V135.481C153.56 139.558 156.684 143.088 160.751 143.231C161.745 143.263 162.736 143.094 163.664 142.735C164.591 142.375 165.438 141.833 166.152 141.139C166.867 140.445 167.435 139.615 167.823 138.696C168.211 137.778 168.411 136.791 168.411 135.794V93.2835C168.411 93.1476 168.437 93.013 168.488 92.8873C168.54 92.7616 168.616 92.6474 168.712 92.5513C168.808 92.4552 168.922 92.3791 169.047 92.3273C169.172 92.2756 169.307 92.2493 169.442 92.2499C169.578 92.2499 169.711 92.2766 169.836 92.3286C169.961 92.3806 170.075 92.4568 170.17 92.5529C170.265 92.6489 170.341 92.7629 170.392 92.8883C170.444 93.0137 170.47 93.148 170.469 93.2835V135.481C170.469 139.558 173.594 143.111 177.665 143.231C178.658 143.261 179.647 143.091 180.573 142.731C181.5 142.371 182.344 141.828 183.057 141.134C183.771 140.44 184.337 139.61 184.725 138.693C185.112 137.776 185.311 136.79 185.312 135.794V51.6678C185.313 51.3941 185.422 51.1318 185.615 50.9382C185.808 50.7446 186.07 50.6353 186.343 50.6342C186.616 50.6342 186.879 50.7431 187.072 50.9369C187.265 51.1308 187.374 51.3937 187.374 51.6678V86.7861C187.375 87.017 187.438 87.2433 187.555 87.442C187.672 87.6408 187.84 87.8049 188.041 87.9177C188.242 88.0304 188.469 88.0878 188.699 88.084C188.929 88.0802 189.154 88.0153 189.351 87.8959C191.771 86.432 193.772 84.3663 195.161 81.899C196.55 79.4318 197.28 76.6467 197.279 73.8137V50.1912C197.278 45.8269 195.548 41.6418 192.469 38.5562C189.39 35.4707 185.215 33.7373 180.861 33.7373Z" fill="#F5D649"/>
<path d="M183.577 18.9287C185.423 11.0899 180.58 3.23546 172.76 1.38533C164.94 -0.464794 157.105 4.38999 155.259 12.2288C153.413 20.0676 158.256 27.9221 166.076 29.7722C173.896 31.6223 181.731 26.7675 183.577 18.9287Z" fill="#F5D649"/>
<path d="M249.435 33.7373H226.392C222.039 33.7373 217.864 35.4708 214.786 38.5565C211.708 41.6422 209.978 45.8273 209.978 50.1912V73.7958C209.977 76.671 210.728 79.4962 212.156 81.9899C213.584 84.4835 215.639 86.5584 218.116 88.0077C218.313 88.1241 218.538 88.1863 218.767 88.188C218.996 88.1897 219.222 88.1309 219.421 88.0175C219.62 87.904 219.786 87.74 219.901 87.5419C220.017 87.3438 220.079 87.1186 220.08 86.889V51.6678C220.081 51.3941 220.19 51.1318 220.383 50.9382C220.577 50.7446 220.838 50.6353 221.111 50.6342C221.383 50.6365 221.643 50.7465 221.835 50.9401C222.026 51.1337 222.134 51.3952 222.134 51.6678V135.481C222.134 139.558 225.258 143.088 229.325 143.231C230.319 143.263 231.31 143.094 232.238 142.735C233.165 142.375 234.012 141.833 234.726 141.139C235.441 140.445 236.009 139.615 236.397 138.696C236.785 137.778 236.985 136.791 236.985 135.794V93.2835C236.984 93.1476 237.011 93.013 237.062 92.8873C237.114 92.7616 237.19 92.6474 237.286 92.5513C237.382 92.4552 237.496 92.3791 237.621 92.3273C237.746 92.2756 237.881 92.2493 238.016 92.2499C238.151 92.2499 238.285 92.2766 238.41 92.3286C238.535 92.3806 238.648 92.4568 238.744 92.5529C238.839 92.6489 238.915 92.7629 238.966 92.8883C239.017 93.0137 239.044 93.148 239.043 93.2835V135.481C239.043 139.558 242.168 143.111 246.239 143.231C247.232 143.261 248.221 143.091 249.147 142.731C250.073 142.371 250.918 141.828 251.631 141.134C252.344 140.44 252.911 139.61 253.299 138.693C253.686 137.776 253.885 136.79 253.886 135.794V51.6678C253.887 51.3941 253.996 51.1318 254.189 50.9382C254.382 50.7446 254.644 50.6353 254.917 50.6342C255.19 50.6342 255.452 50.7431 255.646 50.9369C255.839 51.1308 255.948 51.3937 255.948 51.6678V86.7861C255.949 87.017 256.012 87.2433 256.129 87.442C256.246 87.6408 256.414 87.8049 256.615 87.9177C256.816 88.0304 257.043 88.0878 257.273 88.084C257.503 88.0802 257.728 88.0153 257.925 87.8959C260.345 86.432 262.346 84.3663 263.735 81.899C265.124 79.4318 265.854 76.6467 265.853 73.8137V50.1912C265.852 45.8269 264.122 41.6418 261.043 38.5562C257.964 35.4707 253.789 33.7373 249.435 33.7373Z" fill="#F5D649"/>
<path d="M252.151 18.9287C253.996 11.0899 249.153 3.23546 241.334 1.38533C233.514 -0.464794 225.679 4.38999 223.833 12.2288C221.987 20.0676 226.83 27.9221 234.65 29.7722C242.47 31.6223 250.305 26.7675 252.151 18.9287Z" fill="#F5D649"/>
<path d="M43.7134 189.51H20.6706C16.3173 189.51 12.1424 191.244 9.06423 194.329C5.98603 197.415 4.25671 201.6 4.25671 205.964V229.568C4.25578 232.444 5.00666 235.269 6.43451 237.763C7.86235 240.256 9.91729 242.331 12.3945 243.78C12.5919 243.897 12.8164 243.959 13.0455 243.961C13.2745 243.962 13.4999 243.904 13.6991 243.79C13.8982 243.677 14.064 243.513 14.1798 243.315C14.2956 243.117 14.3572 242.891 14.3586 242.662V207.441C14.3598 207.167 14.4688 206.905 14.6619 206.711C14.855 206.517 15.1166 206.408 15.3898 206.407C15.6617 206.409 15.9217 206.519 16.1131 206.713C16.3046 206.906 16.412 207.168 16.412 207.441V291.254C16.412 295.33 19.5367 298.861 23.6034 299.004C24.5976 299.036 25.5881 298.867 26.5159 298.508C27.4438 298.148 28.2901 297.605 29.0046 296.912C29.7191 296.218 30.2873 295.387 30.6753 294.469C31.0634 293.551 31.2634 292.564 31.2635 291.567V249.056C31.2629 248.92 31.2892 248.786 31.3408 248.66C31.3924 248.534 31.4683 248.42 31.5642 248.324C31.6601 248.228 31.774 248.152 31.8993 248.1C32.0247 248.048 32.1591 248.022 32.2946 248.023C32.4299 248.023 32.5637 248.049 32.6886 248.101C32.8134 248.153 32.9268 248.23 33.0222 248.326C33.1176 248.422 33.1931 248.536 33.2445 248.661C33.2958 248.786 33.3219 248.921 33.3214 249.056V291.254C33.3214 295.33 36.4461 298.883 40.5172 299.004C41.5103 299.034 42.4993 298.864 43.4256 298.504C44.3519 298.143 45.1966 297.6 45.9097 296.907C46.6228 296.213 47.1898 295.383 47.577 294.466C47.9642 293.549 48.1638 292.563 48.1639 291.567V207.441C48.1651 207.167 48.2741 206.905 48.4672 206.711C48.6604 206.517 48.922 206.408 49.1951 206.407C49.4686 206.407 49.7309 206.516 49.9242 206.71C50.1176 206.903 50.2263 207.166 50.2263 207.441V242.559C50.2278 242.79 50.2903 243.016 50.4074 243.215C50.5245 243.414 50.692 243.578 50.893 243.69C51.0939 243.803 51.3211 243.861 51.5513 243.857C51.7816 243.853 52.0067 243.788 52.2038 243.669C54.6234 242.205 56.6246 240.139 58.0136 237.672C59.4026 235.204 60.1322 232.419 60.1317 229.586V205.964C60.1305 201.6 58.4002 197.415 55.3213 194.329C52.2424 191.243 48.067 189.51 43.7134 189.51Z" fill="#F5D649"/>
<path d="M46.4292 174.701C48.2748 166.863 43.4319 159.008 35.6121 157.158C27.7923 155.308 19.957 160.163 18.1114 168.002C16.2657 175.84 21.1087 183.695 28.9285 185.545C36.7482 187.395 44.5836 182.54 46.4292 174.701Z" fill="#F5D649"/>
<path d="M112.287 189.51H89.2444C84.8912 189.51 80.7163 191.244 77.6381 194.329C74.5599 197.415 72.8306 201.6 72.8306 205.964V229.568C72.8296 232.444 73.5805 235.269 75.0084 237.763C76.4362 240.256 78.4911 242.331 80.9683 243.78C81.1657 243.897 81.3903 243.959 81.6193 243.961C81.8484 243.962 82.0738 243.904 82.2729 243.79C82.4721 243.677 82.6379 243.513 82.7537 243.315C82.8694 243.117 82.9311 242.891 82.9324 242.662V207.441C82.9336 207.167 83.0426 206.905 83.2358 206.711C83.4289 206.517 83.6905 206.408 83.9636 206.407C84.2355 206.409 84.4955 206.519 84.687 206.713C84.8784 206.906 84.9859 207.168 84.9859 207.441V291.254C84.9859 295.33 88.1106 298.861 92.1772 299.004C93.1715 299.036 94.1619 298.867 95.0898 298.508C96.0176 298.148 96.8639 297.605 97.5785 296.912C98.293 296.218 98.8612 295.387 99.2492 294.469C99.6372 293.551 99.8372 292.564 99.8373 291.567V249.056C99.8368 248.92 99.863 248.786 99.9146 248.66C99.9662 248.534 100.042 248.42 100.138 248.324C100.234 248.228 100.348 248.152 100.473 248.1C100.599 248.048 100.733 248.022 100.869 248.023C101.004 248.023 101.138 248.049 101.262 248.101C101.387 248.153 101.501 248.23 101.596 248.326C101.691 248.422 101.767 248.536 101.818 248.661C101.87 248.786 101.896 248.921 101.895 249.056V291.254C101.895 295.33 105.02 298.883 109.091 299.004C110.084 299.034 111.073 298.864 111.999 298.504C112.926 298.143 113.77 297.6 114.484 296.907C115.197 296.213 115.764 295.383 116.151 294.466C116.538 293.549 116.738 292.563 116.738 291.567V207.441C116.739 207.167 116.848 206.905 117.041 206.711C117.234 206.517 117.496 206.408 117.769 206.407C118.042 206.407 118.305 206.516 118.498 206.71C118.691 206.903 118.8 207.166 118.8 207.441V242.559C118.802 242.79 118.864 243.016 118.981 243.215C119.098 243.414 119.266 243.578 119.467 243.69C119.668 243.803 119.895 243.861 120.125 243.857C120.355 243.853 120.581 243.788 120.778 243.669C123.197 242.205 125.198 240.139 126.587 237.672C127.976 235.204 128.706 232.419 128.706 229.586V205.964C128.704 201.6 126.974 197.415 123.895 194.329C120.816 191.243 116.641 189.51 112.287 189.51Z" fill="#F5D649"/>
<path d="M115.003 174.701C116.849 166.863 112.006 159.008 104.186 157.158C96.3662 155.308 88.5309 160.163 86.6852 168.002C84.8396 175.84 89.6826 183.695 97.5023 185.545C105.322 187.395 113.157 182.54 115.003 174.701Z" fill="#F5D649"/>
<path d="M180.861 189.51H157.818C153.465 189.51 149.29 191.244 146.212 194.329C143.134 197.415 141.404 201.6 141.404 205.964V229.568C141.404 232.444 142.154 235.269 143.582 237.763C145.01 240.256 147.065 242.331 149.542 243.78C149.74 243.897 149.964 243.959 150.193 243.961C150.422 243.962 150.648 243.904 150.847 243.79C151.046 243.677 151.212 243.513 151.328 243.315C151.443 243.117 151.505 242.891 151.506 242.662V207.441C151.507 207.167 151.617 206.905 151.81 206.711C152.003 206.517 152.264 206.408 152.537 206.407C152.809 206.409 153.069 206.519 153.261 206.713C153.452 206.906 153.56 207.168 153.56 207.441V291.254C153.56 295.33 156.684 298.861 160.751 299.004C161.745 299.036 162.736 298.867 163.664 298.508C164.591 298.148 165.438 297.605 166.152 296.912C166.867 296.218 167.435 295.387 167.823 294.469C168.211 293.551 168.411 292.564 168.411 291.567V249.056C168.411 248.92 168.437 248.786 168.488 248.66C168.54 248.534 168.616 248.42 168.712 248.324C168.808 248.228 168.922 248.152 169.047 248.1C169.172 248.048 169.307 248.022 169.442 248.023C169.578 248.023 169.711 248.049 169.836 248.101C169.961 248.153 170.075 248.23 170.17 248.326C170.265 248.422 170.341 248.536 170.392 248.661C170.444 248.786 170.47 248.921 170.469 249.056V291.254C170.469 295.33 173.594 298.883 177.665 299.004C178.658 299.034 179.647 298.864 180.573 298.504C181.5 298.143 182.344 297.6 183.057 296.907C183.771 296.213 184.337 295.383 184.725 294.466C185.112 293.549 185.311 292.563 185.312 291.567V207.441C185.313 207.167 185.422 206.905 185.615 206.711C185.808 206.517 186.07 206.408 186.343 206.407C186.616 206.407 186.879 206.516 187.072 206.71C187.265 206.903 187.374 207.166 187.374 207.441V242.559C187.375 242.79 187.438 243.016 187.555 243.215C187.672 243.414 187.84 243.578 188.041 243.69C188.242 243.803 188.469 243.861 188.699 243.857C188.929 243.853 189.154 243.788 189.351 243.669C191.771 242.205 193.772 240.139 195.161 237.672C196.55 235.204 197.28 232.419 197.279 229.586V205.964C197.278 201.6 195.548 197.415 192.469 194.329C189.39 191.243 185.215 189.51 180.861 189.51Z" fill="#F5D649"/>
<path d="M183.577 174.701C185.423 166.863 180.58 159.008 172.76 157.158C164.94 155.308 157.105 160.163 155.259 168.002C153.413 175.84 158.256 183.695 166.076 185.545C173.896 187.395 181.731 182.54 183.577 174.701Z" fill="#F5D649"/>
<path d="M249.435 189.51H226.392C222.039 189.51 217.864 191.244 214.786 194.329C211.708 197.415 209.978 201.6 209.978 205.964V229.568C209.977 232.444 210.728 235.269 212.156 237.763C213.584 240.256 215.639 242.331 218.116 243.78C218.313 243.897 218.538 243.959 218.767 243.961C218.996 243.962 219.222 243.904 219.421 243.79C219.62 243.677 219.786 243.513 219.901 243.315C220.017 243.117 220.079 242.891 220.08 242.662V207.441C220.081 207.167 220.19 206.905 220.383 206.711C220.577 206.517 220.838 206.408 221.111 206.407C221.383 206.409 221.643 206.519 221.835 206.713C222.026 206.906 222.134 207.168 222.134 207.441V291.254C222.134 295.33 225.258 298.861 229.325 299.004C230.319 299.036 231.31 298.867 232.238 298.508C233.165 298.148 234.012 297.605 234.726 296.912C235.441 296.218 236.009 295.387 236.397 294.469C236.785 293.551 236.985 292.564 236.985 291.567V249.056C236.984 248.92 237.011 248.786 237.062 248.66C237.114 248.534 237.19 248.42 237.286 248.324C237.382 248.228 237.496 248.152 237.621 248.1C237.746 248.048 237.881 248.022 238.016 248.023C238.151 248.023 238.285 248.049 238.41 248.101C238.535 248.153 238.648 248.23 238.744 248.326C238.839 248.422 238.915 248.536 238.966 248.661C239.017 248.786 239.044 248.921 239.043 249.056V291.254C239.043 295.33 242.168 298.883 246.239 299.004C247.232 299.034 248.221 298.864 249.147 298.504C250.073 298.143 250.918 297.6 251.631 296.907C252.344 296.213 252.911 295.383 253.299 294.466C253.686 293.549 253.885 292.563 253.886 291.567V207.441C253.887 207.167 253.996 206.905 254.189 206.711C254.382 206.517 254.644 206.408 254.917 206.407C255.19 206.407 255.452 206.516 255.646 206.71C255.839 206.903 255.948 207.166 255.948 207.441V242.559C255.949 242.79 256.012 243.016 256.129 243.215C256.246 243.414 256.414 243.578 256.615 243.69C256.816 243.803 257.043 243.861 257.273 243.857C257.503 243.853 257.728 243.788 257.925 243.669C260.345 242.205 262.346 240.139 263.735 237.672C265.124 235.204 265.854 232.419 265.853 229.586V205.964C265.852 201.6 264.122 197.415 261.043 194.329C257.964 191.243 253.789 189.51 249.435 189.51Z" fill="#F5D649"/>
<path d="M252.151 174.701C253.996 166.863 249.153 159.008 241.334 157.158C233.514 155.308 225.679 160.163 223.833 168.002C221.987 175.84 226.83 183.695 234.65 185.545C242.47 187.395 250.305 182.54 252.151 174.701Z" fill="#F5D649"/>
<path d="M318.009 33.7373H294.966C290.613 33.7373 286.438 35.4708 283.36 38.5565C280.281 41.6422 278.552 45.8273 278.552 50.1912V73.7958C278.551 76.671 279.302 79.4962 280.73 81.9899C282.158 84.4835 284.213 86.5584 286.69 88.0077C286.887 88.1241 287.112 88.1863 287.341 88.188C287.57 88.1897 287.795 88.1309 287.995 88.0175C288.194 87.904 288.359 87.74 288.475 87.5419C288.591 87.3438 288.653 87.1186 288.654 86.889V51.6678C288.655 51.3941 288.764 51.1318 288.957 50.9382C289.15 50.7446 289.412 50.6353 289.685 50.6342C289.957 50.6365 290.217 50.7465 290.409 50.9401C290.6 51.1337 290.707 51.3952 290.707 51.6678V135.481C290.707 139.558 293.832 143.088 297.899 143.231C298.893 143.263 299.883 143.094 300.811 142.735C301.739 142.375 302.586 141.833 303.3 141.139C304.015 140.445 304.583 139.615 304.971 138.696C305.359 137.778 305.559 136.791 305.559 135.794V93.2835C305.558 93.1476 305.585 93.013 305.636 92.8873C305.688 92.7616 305.764 92.6474 305.86 92.5513C305.955 92.4552 306.069 92.3791 306.195 92.3273C306.32 92.2756 306.454 92.2493 306.59 92.2499C306.725 92.2499 306.859 92.2766 306.984 92.3286C307.109 92.3806 307.222 92.4568 307.318 92.5529C307.413 92.6489 307.489 92.7629 307.54 92.8883C307.591 93.0137 307.617 93.148 307.617 93.2835V135.481C307.617 139.558 310.742 143.111 314.813 143.231C315.806 143.261 316.795 143.091 317.721 142.731C318.647 142.371 319.492 141.828 320.205 141.134C320.918 140.44 321.485 139.61 321.872 138.693C322.26 137.776 322.459 136.79 322.459 135.794V51.6678C322.461 51.3941 322.57 51.1318 322.763 50.9382C322.956 50.7446 323.217 50.6353 323.491 50.6342C323.764 50.6342 324.026 50.7431 324.22 50.9369C324.413 51.1308 324.522 51.3937 324.522 51.6678V86.7861C324.523 87.017 324.586 87.2433 324.703 87.442C324.82 87.6408 324.987 87.8049 325.188 87.9177C325.389 88.0304 325.616 88.0878 325.847 88.084C326.077 88.0802 326.302 88.0153 326.499 87.8959C328.919 86.432 330.92 84.3663 332.309 81.899C333.698 79.4318 334.428 76.6467 334.427 73.8137V50.1912C334.426 45.8269 332.696 41.6418 329.617 38.5562C326.538 35.4707 322.362 33.7373 318.009 33.7373Z" fill="#F5D649"/>
<path d="M320.725 18.9287C322.57 11.0899 317.727 3.23546 309.908 1.38533C302.088 -0.464794 294.252 4.38999 292.407 12.2288C290.561 20.0676 295.404 27.9221 303.224 29.7722C311.044 31.6223 318.879 26.7675 320.725 18.9287Z" fill="#F5D649"/>
<path d="M318.009 189.51H294.966C290.613 189.51 286.438 191.244 283.36 194.329C280.281 197.415 278.552 201.6 278.552 205.964V229.568C278.551 232.444 279.302 235.269 280.73 237.763C282.158 240.256 284.213 242.331 286.69 243.78C286.887 243.897 287.112 243.959 287.341 243.961C287.57 243.962 287.795 243.904 287.995 243.79C288.194 243.677 288.359 243.513 288.475 243.315C288.591 243.117 288.653 242.891 288.654 242.662V207.441C288.655 207.167 288.764 206.905 288.957 206.711C289.15 206.517 289.412 206.408 289.685 206.407C289.957 206.409 290.217 206.519 290.409 206.713C290.6 206.906 290.707 207.168 290.707 207.441V291.254C290.707 295.33 293.832 298.861 297.899 299.004C298.893 299.036 299.883 298.867 300.811 298.508C301.739 298.148 302.586 297.605 303.3 296.912C304.015 296.218 304.583 295.387 304.971 294.469C305.359 293.551 305.559 292.564 305.559 291.567V249.056C305.558 248.92 305.585 248.786 305.636 248.66C305.688 248.534 305.764 248.42 305.86 248.324C305.955 248.228 306.069 248.152 306.195 248.1C306.32 248.048 306.454 248.022 306.59 248.023C306.725 248.023 306.859 248.049 306.984 248.101C307.109 248.153 307.222 248.23 307.318 248.326C307.413 248.422 307.489 248.536 307.54 248.661C307.591 248.786 307.617 248.921 307.617 249.056V291.254C307.617 295.33 310.742 298.883 314.813 299.004C315.806 299.034 316.795 298.864 317.721 298.504C318.647 298.143 319.492 297.6 320.205 296.907C320.918 296.213 321.485 295.383 321.872 294.466C322.26 293.549 322.459 292.563 322.459 291.567V207.441C322.461 207.167 322.57 206.905 322.763 206.711C322.956 206.517 323.217 206.408 323.491 206.407C323.764 206.407 324.026 206.516 324.22 206.71C324.413 206.903 324.522 207.166 324.522 207.441V242.559C324.523 242.79 324.586 243.016 324.703 243.215C324.82 243.414 324.987 243.578 325.188 243.69C325.389 243.803 325.616 243.861 325.847 243.857C326.077 243.853 326.302 243.788 326.499 243.669C328.919 242.205 330.92 240.139 332.309 237.672C333.698 235.204 334.428 232.419 334.427 229.586V205.964C334.426 201.6 332.696 197.415 329.617 194.329C326.538 191.243 322.362 189.51 318.009 189.51Z" fill="#F5D649"/>
<path d="M320.725 174.701C322.57 166.863 317.727 159.008 309.908 157.158C302.088 155.308 294.252 160.163 292.407 168.002C290.561 175.84 295.404 183.695 303.224 185.545C311.044 187.395 318.879 182.54 320.725 174.701Z" fill="#F5D649"/>
</g>
<defs>
<filter id="filter0_d_58_6120" x="0.256714" y="0.992065" width="338.17" height="306.016" filterUnits="userSpaceOnUse" color-interpolation-filters="sRGB">
<feFlood flood-opacity="0" result="BackgroundImageFix"/>
<feColorMatrix in="SourceAlpha" type="matrix" values="0 0 0 0 0 0 0 0 0 0 0 0 0 0 0 0 0 0 127 0" result="hardAlpha"/>
<feOffset dy="4"/>
<feGaussianBlur stdDeviation="2"/>
<feComposite in2="hardAlpha" operator="out"/>
<feColorMatrix type="matrix" values="0 0 0 0 0 0 0 0 0 0 0 0 0 0 0 0 0 0 0.25 0"/>
<feBlend mode="normal" in2="BackgroundImageFix" result="effect1_dropShadow_58_6120"/>
<feBlend mode="normal" in="SourceGraphic" in2="effect1_dropShadow_58_6120" result="shape"/>
</filter>
</defs>
</svg>
