<svg width="331" height="300" viewBox="0 0 331 300" fill="none" xmlns="http://www.w3.org/2000/svg">
<path d="M39.7134 33.7373H16.6706C12.3173 33.7373 8.14242 35.4708 5.06423 38.5565C1.98603 41.6422 0.256715 45.8273 0.256715 50.1912V73.7958C0.25578 76.671 1.00666 79.4962 2.43451 81.9899C3.86235 84.4835 5.91729 86.5584 8.39446 88.0077C8.59189 88.1241 8.81643 88.1863 9.04546 88.188C9.27449 88.1897 9.49993 88.1309 9.69907 88.0175C9.8982 87.904 10.064 87.74 10.1798 87.5419C10.2956 87.3438 10.3572 87.1186 10.3586 86.889V51.6678C10.3598 51.3941 10.4688 51.1318 10.6619 50.9382C10.855 50.7446 11.1166 50.6353 11.3898 50.6342C11.6617 50.6365 11.9217 50.7465 12.1131 50.9401C12.3046 51.1337 12.412 51.3952 12.412 51.6678V135.481C12.412 139.558 15.5367 143.088 19.6034 143.231C20.5976 143.263 21.5881 143.094 22.5159 142.735C23.4438 142.375 24.2901 141.833 25.0046 141.139C25.7191 140.445 26.2873 139.615 26.6753 138.696C27.0634 137.778 27.2634 136.791 27.2635 135.794V93.2835C27.2629 93.1476 27.2892 93.013 27.3408 92.8873C27.3924 92.7616 27.4683 92.6474 27.5642 92.5513C27.6601 92.4552 27.774 92.3791 27.8993 92.3273C28.0247 92.2756 28.1591 92.2493 28.2946 92.2499C28.4299 92.2499 28.5637 92.2766 28.6886 92.3286C28.8134 92.3806 28.9268 92.4568 29.0222 92.5529C29.1176 92.6489 29.1931 92.7629 29.2445 92.8883C29.2958 93.0137 29.3219 93.148 29.3214 93.2835V135.481C29.3214 139.558 32.4461 143.111 36.5172 143.231C37.5103 143.261 38.4993 143.091 39.4256 142.731C40.3519 142.371 41.1966 141.828 41.9097 141.134C42.6228 140.44 43.1898 139.61 43.577 138.693C43.9642 137.776 44.1638 136.79 44.1639 135.794V51.6678C44.1651 51.3941 44.2741 51.1318 44.4672 50.9382C44.6604 50.7446 44.922 50.6353 45.1951 50.6342C45.4686 50.6342 45.7309 50.7431 45.9242 50.9369C46.1176 51.1308 46.2263 51.3937 46.2263 51.6678V86.7861C46.2278 87.017 46.2903 87.2433 46.4074 87.442C46.5245 87.6408 46.692 87.8049 46.893 87.9177C47.0939 88.0304 47.3211 88.0878 47.5513 88.084C47.7816 88.0802 48.0067 88.0153 48.2038 87.8959C50.6234 86.432 52.6246 84.3663 54.0136 81.899C55.4026 79.4318 56.1322 76.6467 56.1317 73.8137V50.1912C56.1305 45.8269 54.4002 41.6418 51.3213 38.5562C48.2424 35.4707 44.067 33.7373 39.7134 33.7373Z" fill="#F5D649"/>
<path d="M42.4292 18.9287C44.2748 11.0899 39.4319 3.23546 31.6121 1.38533C23.7923 -0.464794 15.957 4.38999 14.1114 12.2288C12.2657 20.0676 17.1087 27.9221 24.9285 29.7722C32.7482 31.6223 40.5836 26.7675 42.4292 18.9287Z" fill="#F5D649"/>
<path d="M108.287 33.7373H85.2444C80.8912 33.7373 76.7163 35.4708 73.6381 38.5565C70.5599 41.6422 68.8306 45.8273 68.8306 50.1912V73.7958C68.8296 76.671 69.5805 79.4962 71.0084 81.9899C72.4362 84.4835 74.4911 86.5584 76.9683 88.0077C77.1657 88.1241 77.3903 88.1863 77.6193 88.188C77.8484 88.1897 78.0738 88.1309 78.2729 88.0175C78.4721 87.904 78.6379 87.74 78.7537 87.5419C78.8694 87.3438 78.9311 87.1186 78.9324 86.889V51.6678C78.9336 51.3941 79.0426 51.1318 79.2358 50.9382C79.4289 50.7446 79.6905 50.6353 79.9636 50.6342C80.2355 50.6365 80.4955 50.7465 80.687 50.9401C80.8784 51.1337 80.9859 51.3952 80.9859 51.6678V135.481C80.9859 139.558 84.1106 143.088 88.1772 143.231C89.1715 143.263 90.1619 143.094 91.0898 142.735C92.0176 142.375 92.8639 141.833 93.5785 141.139C94.293 140.445 94.8612 139.615 95.2492 138.696C95.6372 137.778 95.8372 136.791 95.8373 135.794V93.2835C95.8368 93.1476 95.863 93.013 95.9146 92.8873C95.9662 92.7616 96.0422 92.6474 96.1381 92.5513C96.2339 92.4552 96.3478 92.3791 96.4732 92.3273C96.5986 92.2756 96.7329 92.2493 96.8685 92.2499C97.0037 92.2499 97.1376 92.2766 97.2625 92.3286C97.3873 92.3806 97.5007 92.4568 97.5961 92.5529C97.6915 92.6489 97.767 92.7629 97.8183 92.8883C97.8697 93.0137 97.8958 93.148 97.8952 93.2835V135.481C97.8952 139.558 101.02 143.111 105.091 143.231C106.084 143.261 107.073 143.091 107.999 142.731C108.926 142.371 109.77 141.828 110.484 141.134C111.197 140.44 111.764 139.61 112.151 138.693C112.538 137.776 112.738 136.79 112.738 135.794V51.6678C112.739 51.3941 112.848 51.1318 113.041 50.9382C113.234 50.7446 113.496 50.6353 113.769 50.6342C114.042 50.6342 114.305 50.7431 114.498 50.9369C114.691 51.1308 114.8 51.3937 114.8 51.6678V86.7861C114.802 87.017 114.864 87.2433 114.981 87.442C115.098 87.6408 115.266 87.8049 115.467 87.9177C115.668 88.0304 115.895 88.0878 116.125 88.084C116.355 88.0802 116.581 88.0153 116.778 87.8959C119.197 86.432 121.198 84.3663 122.587 81.899C123.976 79.4318 124.706 76.6467 124.706 73.8137V50.1912C124.704 45.8269 122.974 41.6418 119.895 38.5562C116.816 35.4707 112.641 33.7373 108.287 33.7373Z" fill="#F5D649"/>
<path d="M111.003 18.9287C112.849 11.0899 108.006 3.23546 100.186 1.38533C92.3662 -0.464794 84.5309 4.38999 82.6852 12.2288C80.8396 20.0676 85.6826 27.9221 93.5023 29.7722C101.322 31.6223 109.157 26.7675 111.003 18.9287Z" fill="#F5D649"/>
<path d="M176.861 33.7373H153.818C149.465 33.7373 145.29 35.4708 142.212 38.5565C139.134 41.6422 137.404 45.8273 137.404 50.1912V73.7958C137.404 76.671 138.154 79.4962 139.582 81.9899C141.01 84.4835 143.065 86.5584 145.542 88.0077C145.74 88.1241 145.964 88.1863 146.193 88.188C146.422 88.1897 146.648 88.1309 146.847 88.0175C147.046 87.904 147.212 87.74 147.328 87.5419C147.443 87.3438 147.505 87.1186 147.506 86.889V51.6678C147.507 51.3941 147.617 51.1318 147.81 50.9382C148.003 50.7446 148.264 50.6353 148.537 50.6342C148.809 50.6365 149.069 50.7465 149.261 50.9401C149.452 51.1337 149.56 51.3952 149.56 51.6678V135.481C149.56 139.558 152.684 143.088 156.751 143.231C157.745 143.263 158.736 143.094 159.664 142.735C160.591 142.375 161.438 141.833 162.152 141.139C162.867 140.445 163.435 139.615 163.823 138.696C164.211 137.778 164.411 136.791 164.411 135.794V93.2835C164.411 93.1476 164.437 93.013 164.488 92.8873C164.54 92.7616 164.616 92.6474 164.712 92.5513C164.808 92.4552 164.922 92.3791 165.047 92.3273C165.172 92.2756 165.307 92.2493 165.442 92.2499C165.578 92.2499 165.711 92.2766 165.836 92.3286C165.961 92.3806 166.075 92.4568 166.17 92.5529C166.265 92.6489 166.341 92.7629 166.392 92.8883C166.444 93.0137 166.47 93.148 166.469 93.2835V135.481C166.469 139.558 169.594 143.111 173.665 143.231C174.658 143.261 175.647 143.091 176.573 142.731C177.5 142.371 178.344 141.828 179.057 141.134C179.771 140.44 180.337 139.61 180.725 138.693C181.112 137.776 181.311 136.79 181.312 135.794V51.6678C181.313 51.3941 181.422 51.1318 181.615 50.9382C181.808 50.7446 182.07 50.6353 182.343 50.6342C182.616 50.6342 182.879 50.7431 183.072 50.9369C183.265 51.1308 183.374 51.3937 183.374 51.6678V86.7861C183.375 87.017 183.438 87.2433 183.555 87.442C183.672 87.6408 183.84 87.8049 184.041 87.9177C184.242 88.0304 184.469 88.0878 184.699 88.084C184.929 88.0802 185.154 88.0153 185.351 87.8959C187.771 86.432 189.772 84.3663 191.161 81.899C192.55 79.4318 193.28 76.6467 193.279 73.8137V50.1912C193.278 45.8269 191.548 41.6418 188.469 38.5562C185.39 35.4707 181.215 33.7373 176.861 33.7373Z" fill="#F5D649"/>
<path d="M179.577 18.9287C181.423 11.0899 176.58 3.23546 168.76 1.38533C160.94 -0.464794 153.105 4.38999 151.259 12.2288C149.413 20.0676 154.256 27.9221 162.076 29.7722C169.896 31.6223 177.731 26.7675 179.577 18.9287Z" fill="#F5D649"/>
<path d="M245.435 33.7373H222.392C218.039 33.7373 213.864 35.4708 210.786 38.5565C207.708 41.6422 205.978 45.8273 205.978 50.1912V73.7958C205.977 76.671 206.728 79.4962 208.156 81.9899C209.584 84.4835 211.639 86.5584 214.116 88.0077C214.313 88.1241 214.538 88.1863 214.767 88.188C214.996 88.1897 215.222 88.1309 215.421 88.0175C215.62 87.904 215.786 87.74 215.901 87.5419C216.017 87.3438 216.079 87.1186 216.08 86.889V51.6678C216.081 51.3941 216.19 51.1318 216.383 50.9382C216.577 50.7446 216.838 50.6353 217.111 50.6342C217.383 50.6365 217.643 50.7465 217.835 50.9401C218.026 51.1337 218.134 51.3952 218.134 51.6678V135.481C218.134 139.558 221.258 143.088 225.325 143.231C226.319 143.263 227.31 143.094 228.238 142.735C229.165 142.375 230.012 141.833 230.726 141.139C231.441 140.445 232.009 139.615 232.397 138.696C232.785 137.778 232.985 136.791 232.985 135.794V93.2835C232.984 93.1476 233.011 93.013 233.062 92.8873C233.114 92.7616 233.19 92.6474 233.286 92.5513C233.382 92.4552 233.496 92.3791 233.621 92.3273C233.746 92.2756 233.881 92.2493 234.016 92.2499C234.151 92.2499 234.285 92.2766 234.41 92.3286C234.535 92.3806 234.648 92.4568 234.744 92.5529C234.839 92.6489 234.915 92.7629 234.966 92.8883C235.017 93.0137 235.044 93.148 235.043 93.2835V135.481C235.043 139.558 238.168 143.111 242.239 143.231C243.232 143.261 244.221 143.091 245.147 142.731C246.073 142.371 246.918 141.828 247.631 141.134C248.344 140.44 248.911 139.61 249.299 138.693C249.686 137.776 249.885 136.79 249.886 135.794V51.6678C249.887 51.3941 249.996 51.1318 250.189 50.9382C250.382 50.7446 250.644 50.6353 250.917 50.6342C251.19 50.6342 251.452 50.7431 251.646 50.9369C251.839 51.1308 251.948 51.3937 251.948 51.6678V86.7861C251.949 87.017 252.012 87.2433 252.129 87.442C252.246 87.6408 252.414 87.8049 252.615 87.9177C252.816 88.0304 253.043 88.0878 253.273 88.084C253.503 88.0802 253.728 88.0153 253.925 87.8959C256.345 86.432 258.346 84.3663 259.735 81.899C261.124 79.4318 261.854 76.6467 261.853 73.8137V50.1912C261.852 45.8269 260.122 41.6418 257.043 38.5562C253.964 35.4707 249.789 33.7373 245.435 33.7373Z" fill="#F5D649"/>
<path d="M248.151 18.9287C249.996 11.0899 245.153 3.23546 237.334 1.38533C229.514 -0.464794 221.679 4.38999 219.833 12.2288C217.987 20.0676 222.83 27.9221 230.65 29.7722C238.47 31.6223 246.305 26.7675 248.151 18.9287Z" fill="#F5D649"/>
<path d="M39.7134 189.51H16.6706C12.3173 189.51 8.14242 191.244 5.06423 194.329C1.98603 197.415 0.256715 201.6 0.256715 205.964V229.568C0.25578 232.444 1.00666 235.269 2.43451 237.763C3.86235 240.256 5.91729 242.331 8.39446 243.78C8.59189 243.897 8.81643 243.959 9.04546 243.961C9.27449 243.962 9.49993 243.904 9.69907 243.79C9.8982 243.677 10.064 243.513 10.1798 243.315C10.2956 243.117 10.3572 242.891 10.3586 242.662V207.441C10.3598 207.167 10.4688 206.905 10.6619 206.711C10.855 206.517 11.1166 206.408 11.3898 206.407C11.6617 206.409 11.9217 206.519 12.1131 206.713C12.3046 206.906 12.412 207.168 12.412 207.441V291.254C12.412 295.33 15.5367 298.861 19.6034 299.004C20.5976 299.036 21.5881 298.867 22.5159 298.508C23.4438 298.148 24.2901 297.605 25.0046 296.912C25.7191 296.218 26.2873 295.387 26.6753 294.469C27.0634 293.551 27.2634 292.564 27.2635 291.567V249.056C27.2629 248.92 27.2892 248.786 27.3408 248.66C27.3924 248.534 27.4683 248.42 27.5642 248.324C27.6601 248.228 27.774 248.152 27.8993 248.1C28.0247 248.048 28.1591 248.022 28.2946 248.023C28.4299 248.023 28.5637 248.049 28.6886 248.101C28.8134 248.153 28.9268 248.23 29.0222 248.326C29.1176 248.422 29.1931 248.536 29.2445 248.661C29.2958 248.786 29.3219 248.921 29.3214 249.056V291.254C29.3214 295.33 32.4461 298.883 36.5172 299.004C37.5103 299.034 38.4993 298.864 39.4256 298.504C40.3519 298.143 41.1966 297.6 41.9097 296.907C42.6228 296.213 43.1898 295.383 43.577 294.466C43.9642 293.549 44.1638 292.563 44.1639 291.567V207.441C44.1651 207.167 44.2741 206.905 44.4672 206.711C44.6604 206.517 44.922 206.408 45.1951 206.407C45.4686 206.407 45.7309 206.516 45.9242 206.71C46.1176 206.903 46.2263 207.166 46.2263 207.441V242.559C46.2278 242.79 46.2903 243.016 46.4074 243.215C46.5245 243.414 46.692 243.578 46.893 243.69C47.0939 243.803 47.3211 243.861 47.5513 243.857C47.7816 243.853 48.0067 243.788 48.2038 243.669C50.6234 242.205 52.6246 240.139 54.0136 237.672C55.4026 235.204 56.1322 232.419 56.1317 229.586V205.964C56.1305 201.6 54.4002 197.415 51.3213 194.329C48.2424 191.243 44.067 189.51 39.7134 189.51Z" fill="#F5D649"/>
<path d="M42.4292 174.701C44.2748 166.863 39.4319 159.008 31.6121 157.158C23.7923 155.308 15.957 160.163 14.1114 168.002C12.2657 175.84 17.1087 183.695 24.9285 185.545C32.7482 187.395 40.5836 182.54 42.4292 174.701Z" fill="#F5D649"/>
<path d="M108.287 189.51H85.2444C80.8912 189.51 76.7163 191.244 73.6381 194.329C70.5599 197.415 68.8306 201.6 68.8306 205.964V229.568C68.8296 232.444 69.5805 235.269 71.0084 237.763C72.4362 240.256 74.4911 242.331 76.9683 243.78C77.1657 243.897 77.3903 243.959 77.6193 243.961C77.8484 243.962 78.0738 243.904 78.2729 243.79C78.4721 243.677 78.6379 243.513 78.7537 243.315C78.8694 243.117 78.9311 242.891 78.9324 242.662V207.441C78.9336 207.167 79.0426 206.905 79.2358 206.711C79.4289 206.517 79.6905 206.408 79.9636 206.407C80.2355 206.409 80.4955 206.519 80.687 206.713C80.8784 206.906 80.9859 207.168 80.9859 207.441V291.254C80.9859 295.33 84.1106 298.861 88.1772 299.004C89.1715 299.036 90.1619 298.867 91.0898 298.508C92.0176 298.148 92.8639 297.605 93.5785 296.912C94.293 296.218 94.8612 295.387 95.2492 294.469C95.6372 293.551 95.8372 292.564 95.8373 291.567V249.056C95.8368 248.92 95.863 248.786 95.9146 248.66C95.9662 248.534 96.0422 248.42 96.1381 248.324C96.2339 248.228 96.3478 248.152 96.4732 248.1C96.5986 248.048 96.7329 248.022 96.8685 248.023C97.0037 248.023 97.1376 248.049 97.2625 248.101C97.3873 248.153 97.5007 248.23 97.5961 248.326C97.6915 248.422 97.767 248.536 97.8183 248.661C97.8697 248.786 97.8958 248.921 97.8952 249.056V291.254C97.8952 295.33 101.02 298.883 105.091 299.004C106.084 299.034 107.073 298.864 107.999 298.504C108.926 298.143 109.77 297.6 110.484 296.907C111.197 296.213 111.764 295.383 112.151 294.466C112.538 293.549 112.738 292.563 112.738 291.567V207.441C112.739 207.167 112.848 206.905 113.041 206.711C113.234 206.517 113.496 206.408 113.769 206.407C114.042 206.407 114.305 206.516 114.498 206.71C114.691 206.903 114.8 207.166 114.8 207.441V242.559C114.802 242.79 114.864 243.016 114.981 243.215C115.098 243.414 115.266 243.578 115.467 243.69C115.668 243.803 115.895 243.861 116.125 243.857C116.355 243.853 116.581 243.788 116.778 243.669C119.197 242.205 121.198 240.139 122.587 237.672C123.976 235.204 124.706 232.419 124.706 229.586V205.964C124.704 201.6 122.974 197.415 119.895 194.329C116.816 191.243 112.641 189.51 108.287 189.51Z" fill="#F5D649"/>
<path d="M111.003 174.701C112.849 166.863 108.006 159.008 100.186 157.158C92.3662 155.308 84.5309 160.163 82.6852 168.002C80.8396 175.84 85.6826 183.695 93.5023 185.545C101.322 187.395 109.157 182.54 111.003 174.701Z" fill="#F5D649"/>
<path d="M176.861 189.51H153.818C149.465 189.51 145.29 191.244 142.212 194.329C139.134 197.415 137.404 201.6 137.404 205.964V229.568C137.404 232.444 138.154 235.269 139.582 237.763C141.01 240.256 143.065 242.331 145.542 243.78C145.74 243.897 145.964 243.959 146.193 243.961C146.422 243.962 146.648 243.904 146.847 243.79C147.046 243.677 147.212 243.513 147.328 243.315C147.443 243.117 147.505 242.891 147.506 242.662V207.441C147.507 207.167 147.617 206.905 147.81 206.711C148.003 206.517 148.264 206.408 148.537 206.407C148.809 206.409 149.069 206.519 149.261 206.713C149.452 206.906 149.56 207.168 149.56 207.441V291.254C149.56 295.33 152.684 298.861 156.751 299.004C157.745 299.036 158.736 298.867 159.664 298.508C160.591 298.148 161.438 297.605 162.152 296.912C162.867 296.218 163.435 295.387 163.823 294.469C164.211 293.551 164.411 292.564 164.411 291.567V249.056C164.411 248.92 164.437 248.786 164.488 248.66C164.54 248.534 164.616 248.42 164.712 248.324C164.808 248.228 164.922 248.152 165.047 248.1C165.172 248.048 165.307 248.022 165.442 248.023C165.578 248.023 165.711 248.049 165.836 248.101C165.961 248.153 166.075 248.23 166.17 248.326C166.265 248.422 166.341 248.536 166.392 248.661C166.444 248.786 166.47 248.921 166.469 249.056V291.254C166.469 295.33 169.594 298.883 173.665 299.004C174.658 299.034 175.647 298.864 176.573 298.504C177.5 298.143 178.344 297.6 179.057 296.907C179.771 296.213 180.337 295.383 180.725 294.466C181.112 293.549 181.311 292.563 181.312 291.567V207.441C181.313 207.167 181.422 206.905 181.615 206.711C181.808 206.517 182.07 206.408 182.343 206.407C182.616 206.407 182.879 206.516 183.072 206.71C183.265 206.903 183.374 207.166 183.374 207.441V242.559C183.375 242.79 183.438 243.016 183.555 243.215C183.672 243.414 183.84 243.578 184.041 243.69C184.242 243.803 184.469 243.861 184.699 243.857C184.929 243.853 185.154 243.788 185.351 243.669C187.771 242.205 189.772 240.139 191.161 237.672C192.55 235.204 193.28 232.419 193.279 229.586V205.964C193.278 201.6 191.548 197.415 188.469 194.329C185.39 191.243 181.215 189.51 176.861 189.51Z" fill="#F5D649"/>
<path d="M179.577 174.701C181.423 166.863 176.58 159.008 168.76 157.158C160.94 155.308 153.105 160.163 151.259 168.002C149.413 175.84 154.256 183.695 162.076 185.545C169.896 187.395 177.731 182.54 179.577 174.701Z" fill="#F5D649"/>
<path d="M245.435 189.51H222.392C218.039 189.51 213.864 191.244 210.786 194.329C207.708 197.415 205.978 201.6 205.978 205.964V229.568C205.977 232.444 206.728 235.269 208.156 237.763C209.584 240.256 211.639 242.331 214.116 243.78C214.313 243.897 214.538 243.959 214.767 243.961C214.996 243.962 215.222 243.904 215.421 243.79C215.62 243.677 215.786 243.513 215.901 243.315C216.017 243.117 216.079 242.891 216.08 242.662V207.441C216.081 207.167 216.19 206.905 216.383 206.711C216.577 206.517 216.838 206.408 217.111 206.407C217.383 206.409 217.643 206.519 217.835 206.713C218.026 206.906 218.134 207.168 218.134 207.441V291.254C218.134 295.33 221.258 298.861 225.325 299.004C226.319 299.036 227.31 298.867 228.238 298.508C229.165 298.148 230.012 297.605 230.726 296.912C231.441 296.218 232.009 295.387 232.397 294.469C232.785 293.551 232.985 292.564 232.985 291.567V249.056C232.984 248.92 233.011 248.786 233.062 248.66C233.114 248.534 233.19 248.42 233.286 248.324C233.382 248.228 233.496 248.152 233.621 248.1C233.746 248.048 233.881 248.022 234.016 248.023C234.151 248.023 234.285 248.049 234.41 248.101C234.535 248.153 234.648 248.23 234.744 248.326C234.839 248.422 234.915 248.536 234.966 248.661C235.017 248.786 235.044 248.921 235.043 249.056V291.254C235.043 295.33 238.168 298.883 242.239 299.004C243.232 299.034 244.221 298.864 245.147 298.504C246.073 298.143 246.918 297.6 247.631 296.907C248.344 296.213 248.911 295.383 249.299 294.466C249.686 293.549 249.885 292.563 249.886 291.567V207.441C249.887 207.167 249.996 206.905 250.189 206.711C250.382 206.517 250.644 206.408 250.917 206.407C251.19 206.407 251.452 206.516 251.646 206.71C251.839 206.903 251.948 207.166 251.948 207.441V242.559C251.949 242.79 252.012 243.016 252.129 243.215C252.246 243.414 252.414 243.578 252.615 243.69C252.816 243.803 253.043 243.861 253.273 243.857C253.503 243.853 253.728 243.788 253.925 243.669C256.345 242.205 258.346 240.139 259.735 237.672C261.124 235.204 261.854 232.419 261.853 229.586V205.964C261.852 201.6 260.122 197.415 257.043 194.329C253.964 191.243 249.789 189.51 245.435 189.51Z" fill="#F5D649"/>
<path d="M248.151 174.701C249.996 166.863 245.153 159.008 237.334 157.158C229.514 155.308 221.679 160.163 219.833 168.002C217.987 175.84 222.83 183.695 230.65 185.545C238.47 187.395 246.305 182.54 248.151 174.701Z" fill="#F5D649"/>
<path d="M314.009 33.7373H290.966C286.613 33.7373 282.438 35.4708 279.36 38.5565C276.281 41.6422 274.552 45.8273 274.552 50.1912V73.7958C274.551 76.671 275.302 79.4962 276.73 81.9899C278.158 84.4835 280.213 86.5584 282.69 88.0077C282.887 88.1241 283.112 88.1863 283.341 88.188C283.57 88.1897 283.795 88.1309 283.995 88.0175C284.194 87.904 284.359 87.74 284.475 87.5419C284.591 87.3438 284.653 87.1186 284.654 86.889V51.6678C284.655 51.3941 284.764 51.1318 284.957 50.9382C285.15 50.7446 285.412 50.6353 285.685 50.6342C285.957 50.6365 286.217 50.7465 286.409 50.9401C286.6 51.1337 286.707 51.3952 286.707 51.6678V135.481C286.707 139.558 289.832 143.088 293.899 143.231C294.893 143.263 295.883 143.094 296.811 142.735C297.739 142.375 298.586 141.833 299.3 141.139C300.015 140.445 300.583 139.615 300.971 138.696C301.359 137.778 301.559 136.791 301.559 135.794V93.2835C301.558 93.1476 301.585 93.013 301.636 92.8873C301.688 92.7616 301.764 92.6474 301.86 92.5513C301.955 92.4552 302.069 92.3791 302.195 92.3273C302.32 92.2756 302.454 92.2493 302.59 92.2499C302.725 92.2499 302.859 92.2766 302.984 92.3286C303.109 92.3806 303.222 92.4568 303.318 92.5529C303.413 92.6489 303.489 92.7629 303.54 92.8883C303.591 93.0137 303.617 93.148 303.617 93.2835V135.481C303.617 139.558 306.742 143.111 310.813 143.231C311.806 143.261 312.795 143.091 313.721 142.731C314.647 142.371 315.492 141.828 316.205 141.134C316.918 140.44 317.485 139.61 317.872 138.693C318.26 137.776 318.459 136.79 318.459 135.794V51.6678C318.461 51.3941 318.57 51.1318 318.763 50.9382C318.956 50.7446 319.217 50.6353 319.491 50.6342C319.764 50.6342 320.026 50.7431 320.22 50.9369C320.413 51.1308 320.522 51.3937 320.522 51.6678V86.7861C320.523 87.017 320.586 87.2433 320.703 87.442C320.82 87.6408 320.987 87.8049 321.188 87.9177C321.389 88.0304 321.616 88.0878 321.847 88.084C322.077 88.0802 322.302 88.0153 322.499 87.8959C324.919 86.432 326.92 84.3663 328.309 81.899C329.698 79.4318 330.428 76.6467 330.427 73.8137V50.1912C330.426 45.8269 328.696 41.6418 325.617 38.5562C322.538 35.4707 318.362 33.7373 314.009 33.7373Z" fill="#F5D649"/>
<path d="M316.725 18.9287C318.57 11.0899 313.727 3.23546 305.908 1.38533C298.088 -0.464794 290.252 4.38999 288.407 12.2288C286.561 20.0676 291.404 27.9221 299.224 29.7722C307.044 31.6223 314.879 26.7675 316.725 18.9287Z" fill="#F5D649"/>
<path d="M314.009 189.51H290.966C286.613 189.51 282.438 191.244 279.36 194.329C276.281 197.415 274.552 201.6 274.552 205.964V229.568C274.551 232.444 275.302 235.269 276.73 237.763C278.158 240.256 280.213 242.331 282.69 243.78C282.887 243.897 283.112 243.959 283.341 243.961C283.57 243.962 283.795 243.904 283.995 243.79C284.194 243.677 284.359 243.513 284.475 243.315C284.591 243.117 284.653 242.891 284.654 242.662V207.441C284.655 207.167 284.764 206.905 284.957 206.711C285.15 206.517 285.412 206.408 285.685 206.407C285.957 206.409 286.217 206.519 286.409 206.713C286.6 206.906 286.707 207.168 286.707 207.441V291.254C286.707 295.33 289.832 298.861 293.899 299.004C294.893 299.036 295.883 298.867 296.811 298.508C297.739 298.148 298.586 297.605 299.3 296.912C300.015 296.218 300.583 295.387 300.971 294.469C301.359 293.551 301.559 292.564 301.559 291.567V249.056C301.558 248.92 301.585 248.786 301.636 248.66C301.688 248.534 301.764 248.42 301.86 248.324C301.955 248.228 302.069 248.152 302.195 248.1C302.32 248.048 302.454 248.022 302.59 248.023C302.725 248.023 302.859 248.049 302.984 248.101C303.109 248.153 303.222 248.23 303.318 248.326C303.413 248.422 303.489 248.536 303.54 248.661C303.591 248.786 303.617 248.921 303.617 249.056V291.254C303.617 295.33 306.742 298.883 310.813 299.004C311.806 299.034 312.795 298.864 313.721 298.504C314.647 298.143 315.492 297.6 316.205 296.907C316.918 296.213 317.485 295.383 317.872 294.466C318.26 293.549 318.459 292.563 318.459 291.567V207.441C318.461 207.167 318.57 206.905 318.763 206.711C318.956 206.517 319.217 206.408 319.491 206.407C319.764 206.407 320.026 206.516 320.22 206.71C320.413 206.903 320.522 207.166 320.522 207.441V242.559C320.523 242.79 320.586 243.016 320.703 243.215C320.82 243.414 320.987 243.578 321.188 243.69C321.389 243.803 321.616 243.861 321.847 243.857C322.077 243.853 322.302 243.788 322.499 243.669C324.919 242.205 326.92 240.139 328.309 237.672C329.698 235.204 330.428 232.419 330.427 229.586V205.964C330.426 201.6 328.696 197.415 325.617 194.329C322.538 191.243 318.362 189.51 314.009 189.51Z" fill="#F5D649"/>
<path d="M316.725 174.701C318.57 166.863 313.727 159.008 305.908 157.158C298.088 155.308 290.252 160.163 288.407 168.002C286.561 175.84 291.404 183.695 299.224 185.545C307.044 187.395 314.879 182.54 316.725 174.701Z" fill="#F5D649"/>
</svg>
